<svg width="74" height="98" viewBox="0 0 74 98" fill="none" xmlns="http://www.w3.org/2000/svg">
<path d="M64.3157 12.9411H49.1929C49.1929 6.26819 43.7676 0.842896 37.0947 0.842896C30.4218 0.842896 24.9965 6.26819 24.9965 12.9411H9.87371C4.86429 12.9411 0.800049 17.0054 0.800049 22.0148V88.5549C0.800049 93.5644 4.86429 97.6286 9.87371 97.6286H64.3157C69.3251 97.6286 73.3893 93.5644 73.3893 88.5549V22.0148C73.3893 17.0054 69.3251 12.9411 64.3157 12.9411ZM18.9474 80.9936C16.4332 80.9936 14.4105 78.9709 14.4105 76.4567C14.4105 73.9426 16.4332 71.9199 18.9474 71.9199C21.4615 71.9199 23.4842 73.9426 23.4842 76.4567C23.4842 78.9709 21.4615 80.9936 18.9474 80.9936ZM18.9474 62.8462C16.4332 62.8462 14.4105 60.8236 14.4105 58.3094C14.4105 55.7953 16.4332 53.7726 18.9474 53.7726C21.4615 53.7726 23.4842 55.7953 23.4842 58.3094C23.4842 60.8236 21.4615 62.8462 18.9474 62.8462ZM18.9474 44.6989C16.4332 44.6989 14.4105 42.6763 14.4105 40.1621C14.4105 37.6479 16.4332 35.6253 18.9474 35.6253C21.4615 35.6253 23.4842 37.6479 23.4842 40.1621C23.4842 42.6763 21.4615 44.6989 18.9474 44.6989ZM37.0947 8.40428C39.6089 8.40428 41.6315 10.4269 41.6315 12.9411C41.6315 15.4553 39.6089 17.4779 37.0947 17.4779C34.5805 17.4779 32.5579 15.4553 32.5579 12.9411C32.5579 10.4269 34.5805 8.40428 37.0947 8.40428ZM61.2911 77.969C61.2911 78.8008 60.6106 79.4813 59.7788 79.4813H32.5579C31.7261 79.4813 31.0456 78.8008 31.0456 77.969V74.9445C31.0456 74.1127 31.7261 73.4322 32.5579 73.4322H59.7788C60.6106 73.4322 61.2911 74.1127 61.2911 74.9445V77.969ZM61.2911 59.8217C61.2911 60.6534 60.6106 61.334 59.7788 61.334H32.5579C31.7261 61.334 31.0456 60.6534 31.0456 59.8217V56.7971C31.0456 55.9654 31.7261 55.2849 32.5579 55.2849H59.7788C60.6106 55.2849 61.2911 55.9654 61.2911 56.7971V59.8217ZM61.2911 41.6744C61.2911 42.5061 60.6106 43.1866 59.7788 43.1866H32.5579C31.7261 43.1866 31.0456 42.5061 31.0456 41.6744V38.6498C31.0456 37.8181 31.7261 37.1375 32.5579 37.1375H59.7788C60.6106 37.1375 61.2911 37.8181 61.2911 38.6498V41.6744Z" fill="#0F5955"/>
</svg>
