<svg width="484" height="484" viewBox="0 0 484 484" fill="none" xmlns="http://www.w3.org/2000/svg">
<rect width="484" height="484" rx="100" fill="url(#paint0_linear_158_30)"/>
<path d="M347.865 161.274H136.135C124.226 161.274 114.632 150.869 114.632 137.953C114.632 125.036 124.226 114.632 136.135 114.632H347.865C359.774 114.632 369.368 125.036 369.368 137.953C369.368 150.869 359.774 161.274 347.865 161.274ZM369.368 242C369.368 229.084 359.774 218.679 347.865 218.679H136.135C124.226 218.679 114.632 229.084 114.632 242C114.632 254.916 124.226 265.321 136.135 265.321H347.865C359.774 265.321 369.368 254.916 369.368 242ZM369.368 346.047C369.368 333.131 359.774 322.726 347.865 322.726H136.135C124.226 322.726 114.632 333.131 114.632 346.047C114.632 358.964 124.226 369.368 136.135 369.368H347.865C359.774 369.368 369.368 358.964 369.368 346.047Z" fill="white"/>
<defs>
<linearGradient id="paint0_linear_158_30" x1="242" y1="0" x2="242" y2="484" gradientUnits="userSpaceOnUse">
<stop stop-color="#187CB4"/>
<stop offset="0.7" stop-color="#247E96"/>
<stop offset="1" stop-color="#1B7670"/>
</linearGradient>
</defs>
</svg>
