<svg width="98" height="98" viewBox="0 0 98 98" fill="none" xmlns="http://www.w3.org/2000/svg">
<path d="M32.6608 32.1696H10.8838C10.2482 32.1699 9.61876 32.045 9.03146 31.8019C8.44417 31.5589 7.91054 31.2024 7.46109 30.753C7.01165 30.3035 6.6552 29.7699 6.41213 29.1826C6.16906 28.5953 6.04413 27.9659 6.0445 27.3303V5.55352C6.0445 4.27006 6.55435 3.03917 7.4619 2.13163C8.36945 1.22408 9.60035 0.714233 10.8838 0.714233C12.1673 0.714233 13.3982 1.22408 14.3057 2.13163C15.2133 3.03917 15.7232 4.27006 15.7232 5.55352V22.491H32.6608C33.9443 22.491 35.1752 23.0009 36.0827 23.9084C36.9903 24.8159 37.5001 26.0468 37.5001 27.3303C37.5001 28.6137 36.9903 29.8446 36.0827 30.7522C35.1752 31.6597 33.9443 32.1696 32.6608 32.1696Z" fill="#0F5955"/>
<path d="M92.5466 53.9464C91.911 53.9468 91.2816 53.8218 90.6943 53.5788C90.107 53.3357 89.5733 52.9793 89.1239 52.5298C88.6745 52.0804 88.318 51.5468 88.0749 50.9595C87.8319 50.3722 87.7069 49.7427 87.7073 49.1071C87.7126 40.5864 84.905 32.3022 79.7202 25.5404C74.5353 18.7786 67.2633 13.9176 59.0329 11.7117C50.8026 9.50591 42.0742 10.0787 34.2027 13.3412C26.3312 16.6037 19.7568 22.3735 15.5002 29.7548C14.8571 30.8653 13.7993 31.6749 12.5594 32.0055C11.3195 32.336 9.999 32.1605 8.8885 31.5175C7.77799 30.8745 6.96841 29.8166 6.63785 28.5767C6.30729 27.3368 6.48283 26.0164 7.12584 24.9059C12.4493 15.6815 20.6685 8.47198 30.5082 4.39619C40.3478 0.3204 51.2576 -0.39379 61.5446 2.36444C71.8316 5.12268 80.9206 11.1991 87.4012 19.6508C93.8818 28.1025 97.3916 38.4569 97.386 49.1071C97.3863 49.7427 97.2614 50.3722 97.0183 50.9595C96.7753 51.5468 96.4188 52.0804 95.9694 52.5298C95.5199 52.9793 94.9863 53.3357 94.399 53.5788C93.8117 53.8218 93.1822 53.9468 92.5466 53.9464ZM87.1024 97.4999C86.4668 97.5003 85.8373 97.3754 85.25 97.1323C84.6627 96.8892 84.1291 96.5328 83.6797 96.0834C83.2302 95.6339 82.8738 95.1003 82.6307 94.513C82.3876 93.9257 82.2627 93.2963 82.2631 92.6607V75.7232H65.3254C64.0419 75.7232 62.811 75.2133 61.9035 74.3058C60.9959 73.3982 60.4861 72.1674 60.4861 70.8839C60.4861 69.6004 60.9959 68.3695 61.9035 67.462C62.811 66.5545 64.0419 66.0446 65.3254 66.0446H87.1024C87.738 66.0443 88.3675 66.1692 88.9547 66.4122C89.542 66.6553 90.0757 67.0118 90.5251 67.4612C90.9746 67.9106 91.331 68.4443 91.5741 69.0316C91.8172 69.6188 91.9421 70.2483 91.9417 70.8839V92.6607C91.9421 93.2963 91.8172 93.9257 91.5741 94.513C91.331 95.1003 90.9746 95.6339 90.5251 96.0834C90.0757 96.5328 89.542 96.8892 88.9547 97.1323C88.3675 97.3754 87.738 97.5003 87.1024 97.4999Z" fill="#0F5955"/>
<path d="M48.9936 97.4999C36.1635 97.4848 23.8632 92.3815 14.791 83.3093C5.71876 74.2372 0.615355 61.937 0.600281 49.1071C0.600281 47.8236 1.11014 46.5928 2.01769 45.6852C2.92524 44.7777 4.15614 44.2678 5.43961 44.2678C6.72308 44.2678 7.95398 44.7777 8.86153 45.6852C9.76908 46.5928 10.2789 47.8236 10.2789 49.1071C10.2736 57.6279 13.0812 65.9121 18.2661 72.6738C23.4509 79.4356 30.7229 84.2967 38.9533 86.5025C47.1837 88.7083 55.912 88.1355 63.7836 84.873C71.6551 81.6105 78.2294 75.8407 82.4861 68.4594C83.1291 67.3489 84.1869 66.5393 85.4268 66.2088C86.6668 65.8782 87.9872 66.0537 89.0977 66.6968C90.2082 67.3398 91.0178 68.3976 91.3484 69.6375C91.6789 70.8774 91.5034 72.1979 90.8604 73.3083C86.604 80.6472 80.4987 86.7425 73.153 90.9871C65.8072 95.2316 57.4774 97.4771 48.9936 97.4999Z" fill="#0F5955"/>
</svg>
