<svg width="97" height="98" viewBox="0 0 97 98" fill="none" xmlns="http://www.w3.org/2000/svg">
<path d="M96.9579 11.084H37.8109V17.9973H96.9579V11.084Z" fill="#0F5955"/>
<path d="M0.171776 14.5408C0.171776 17.2754 1.01272 19.9486 2.58827 22.2224C4.16382 24.4961 6.40322 26.2683 9.02326 27.3148C11.6433 28.3613 14.5263 28.6351 17.3078 28.1016C20.0892 27.5681 22.6441 26.2513 24.6494 24.3176C26.6547 22.3839 28.0203 19.9203 28.5736 17.2382C29.1268 14.5561 28.8429 11.7761 27.7576 9.24958C26.6723 6.72311 24.8345 4.5637 22.4765 3.04443C20.1186 1.52515 17.3463 0.714233 14.5104 0.714233C10.7089 0.71835 7.06428 2.17639 4.37618 4.76848C1.68809 7.36057 0.176045 10.875 0.171776 14.5408ZM14.5104 7.6275C15.9284 7.6275 17.3145 8.03296 18.4935 8.7926C19.6725 9.55224 20.5914 10.6319 21.134 11.8952C21.6766 13.1584 21.8186 14.5484 21.542 15.8895C21.2654 17.2305 20.5825 18.4624 19.5799 19.4292C18.5773 20.396 17.2998 21.0545 15.9091 21.3212C14.5184 21.588 13.0769 21.451 11.7668 20.9278C10.4568 20.4045 9.33712 19.5185 8.54935 18.3816C7.76157 17.2447 7.3411 15.9081 7.3411 14.5408C7.34323 12.7079 8.09926 10.9507 9.4433 9.65463C10.7874 8.35858 12.6097 7.62956 14.5104 7.6275Z" fill="#0F5955"/>
<path d="M96.9579 45.6504H37.8109V52.5637H96.9579V45.6504Z" fill="#0F5955"/>
<path d="M14.5104 62.9337C17.3463 62.9337 20.1186 62.1228 22.4765 60.6035C24.8345 59.0842 26.6723 56.9248 27.7576 54.3984C28.8429 51.8719 29.1268 49.0918 28.5736 46.4098C28.0203 43.7277 26.6547 41.264 24.6494 39.3303C22.6441 37.3967 20.0892 36.0798 17.3077 35.5463C14.5263 35.0128 11.6433 35.2866 9.02326 36.3331C6.40321 37.3796 4.16382 39.1518 2.58827 41.4256C1.01272 43.6993 0.17177 46.3726 0.17177 49.1072C0.17604 52.7729 1.68809 56.2874 4.37618 58.8795C7.06427 61.4716 10.7089 62.9296 14.5104 62.9337ZM14.5104 42.1939C15.9284 42.1939 17.3145 42.5994 18.4935 43.359C19.6725 44.1187 20.5914 45.1984 21.134 46.4616C21.6766 47.7248 21.8186 49.1149 21.542 50.4559C21.2654 51.7969 20.5825 53.0288 19.5799 53.9956C18.5772 54.9624 17.2998 55.6209 15.9091 55.8876C14.5184 56.1544 13.0769 56.0175 11.7668 55.4942C10.4568 54.971 9.33712 54.0849 8.54934 52.948C7.76157 51.8111 7.34109 50.4745 7.34109 49.1072C7.34323 47.2743 8.09925 45.5171 9.4433 44.221C10.7873 42.925 12.6097 42.196 14.5104 42.1939Z" fill="#0F5955"/>
<path d="M96.9579 80.217H37.8109V87.1303H96.9579V80.217Z" fill="#0F5955"/>
<path d="M14.5104 97.4999C17.3463 97.4999 20.1186 96.689 22.4765 95.1697C24.8345 93.6504 26.6723 91.491 27.7576 88.9645C28.8429 86.4381 29.1268 83.658 28.5736 80.9759C28.0203 78.2938 26.6547 75.8302 24.6494 73.8965C22.6441 71.9628 20.0892 70.646 17.3077 70.1125C14.5263 69.579 11.6433 69.8528 9.02326 70.8993C6.40321 71.9458 4.16382 73.718 2.58827 75.9917C1.01272 78.2655 0.17177 80.9387 0.17177 83.6733C0.17604 87.3391 1.68809 90.8536 4.37618 93.4456C7.06427 96.0377 10.7089 97.4958 14.5104 97.4999ZM14.5104 76.7601C15.9284 76.7601 17.3145 77.1655 18.4935 77.9252C19.6725 78.6848 20.5914 79.7645 21.134 81.0277C21.6766 82.291 21.8186 83.681 21.542 85.0221C21.2654 86.3631 20.5825 87.5949 19.5799 88.5618C18.5772 89.5286 17.2998 90.187 15.9091 90.4538C14.5184 90.7205 13.0769 90.5836 11.7668 90.0604C10.4568 89.5371 9.33712 88.651 8.54934 87.5142C7.76157 86.3773 7.34109 85.0407 7.34109 83.6733C7.34323 81.8405 8.09925 80.0832 9.4433 78.7872C10.7873 77.4912 12.6097 76.7621 14.5104 76.7601Z" fill="#0F5955"/>
</svg>
