<svg width="122" height="98" viewBox="0 0 122 98" fill="none" xmlns="http://www.w3.org/2000/svg">
<path d="M91.0114 55.1562C94.3519 55.1562 97.0599 57.8645 97.0599 61.2053C97.0599 64.3075 94.725 66.8643 91.7168 67.2137L91.0114 67.2544H20.9395L40.8519 87.1735C43.0322 89.3541 43.2 92.7853 41.355 95.1583L40.8519 95.7282C38.6715 97.9088 35.2406 98.0765 32.8678 96.2314L32.298 95.7282L2.05548 65.4827C-1.5892 61.8376 0.721417 55.7177 5.64512 55.1924L6.33242 55.1562H91.0114ZM88.6579 1.98276L89.2277 2.48598L119.47 32.7315C123.115 36.3766 120.804 42.4965 115.881 43.0218L115.193 43.058H30.5143C27.1738 43.058 24.4658 40.3497 24.4658 37.0089C24.4658 33.9067 26.8008 31.3499 29.8089 31.0005L30.5143 30.9598H100.586L80.6739 11.0407C78.4935 8.8601 78.3257 5.42886 80.1707 3.05585L80.6739 2.48598C82.8542 0.305371 86.2851 0.13763 88.6579 1.98276Z" fill="#0F5955"/>
</svg>
